<svg xmlns="http://www.w3.org/2000/svg" height="320" width="320" viewBox="0 0 33 33" role="img" data-sentry-element="QRCodeSVG" data-sentry-source-file="PaymentLinkQrCodeModal.tsx"><path fill="#FFFFFF" d="M0,0 h33v33H0z" shape-rendering="crispEdges"/><path fill="#000000" d="M0 0h7v1H0zM8 0h1v1H8zM10 0h1v1H10zM18 0h3v1H18zM23 0h1v1H23zM26,0 h7v1H26zM0 1h1v1H0zM6 1h1v1H6zM9 1h2v1H9zM12 1h2v1H12zM15 1h2v1H15zM18 1h1v1H18zM20 1h1v1H20zM24 1h1v1H24zM26 1h1v1H26zM32,1 h1v1H32zM0 2h1v1H0zM2 2h3v1H2zM6 2h1v1H6zM10 2h1v1H10zM12 2h2v1H12zM16 2h1v1H16zM19 2h1v1H19zM21 2h4v1H21zM26 2h1v1H26zM28 2h3v1H28zM32,2 h1v1H32zM0 3h1v1H0zM2 3h3v1H2zM6 3h1v1H6zM9 3h2v1H9zM12 3h4v1H12zM18 3h1v1H18zM21 3h1v1H21zM23 3h2v1H23zM26 3h1v1H26zM28 3h3v1H28zM32,3 h1v1H32zM0 4h1v1H0zM2 4h3v1H2zM6 4h1v1H6zM8 4h2v1H8zM11 4h4v1H11zM17 4h1v1H17zM20 4h2v1H20zM23 4h1v1H23zM26 4h1v1H26zM28 4h3v1H28zM32,4 h1v1H32zM0 5h1v1H0zM6 5h1v1H6zM8 5h1v1H8zM11 5h3v1H11zM15 5h3v1H15zM19 5h1v1H19zM21 5h1v1H21zM26 5h1v1H26zM32,5 h1v1H32zM0 6h7v1H0zM8 6h1v1H8zM10 6h1v1H10zM12 6h1v1H12zM14 6h1v1H14zM16 6h1v1H16zM18 6h1v1H18zM20 6h1v1H20zM22 6h1v1H22zM24 6h1v1H24zM26,6 h7v1H26zM10 7h3v1H10zM19 7h5v1H19zM1 8h7v1H1zM10 8h3v1H10zM14 8h2v1H14zM17 8h1v1H17zM19 8h1v1H19zM22 8h2v1H22zM27 8h2v1H27zM32,8 h1v1H32zM0 9h1v1H0zM3 9h1v1H3zM5 9h1v1H5zM7 9h4v1H7zM17 9h4v1H17zM22 9h2v1H22zM26 9h2v1H26zM29 9h2v1H29zM32,9 h1v1H32zM1 10h1v1H1zM3 10h1v1H3zM5 10h2v1H5zM9 10h2v1H9zM12 10h1v1H12zM15 10h1v1H15zM17 10h1v1H17zM22 10h1v1H22zM24 10h1v1H24zM26 10h1v1H26zM28 10h1v1H28zM30 10h2v1H30zM0 11h1v1H0zM2 11h3v1H2zM7 11h1v1H7zM9 11h3v1H9zM13 11h8v1H13zM23 11h1v1H23zM25 11h1v1H25zM28 11h3v1H28zM2 12h2v1H2zM6 12h1v1H6zM8 12h1v1H8zM11 12h2v1H11zM16 12h1v1H16zM19 12h7v1H19zM27 12h3v1H27zM0 13h1v1H0zM2 13h3v1H2zM8 13h2v1H8zM13 13h2v1H13zM18 13h1v1H18zM21 13h1v1H21zM23 13h1v1H23zM26 13h1v1H26zM29 13h1v1H29zM31,13 h2v1H31zM2 14h1v1H2zM6 14h2v1H6zM9 14h1v1H9zM12 14h5v1H12zM20 14h2v1H20zM24 14h4v1H24zM30 14h2v1H30zM1 15h3v1H1zM5 15h1v1H5zM7 15h1v1H7zM9 15h1v1H9zM11 15h1v1H11zM14 15h1v1H14zM17 15h1v1H17zM21 15h1v1H21zM23 15h5v1H23zM29 15h2v1H29zM1 16h2v1H1zM4 16h1v1H4zM6 16h1v1H6zM8 16h2v1H8zM11 16h7v1H11zM22 16h4v1H22zM27 16h4v1H27zM32,16 h1v1H32zM0 17h3v1H0zM5 17h1v1H5zM9 17h2v1H9zM12 17h4v1H12zM19 17h1v1H19zM21 17h7v1H21zM29,17 h4v1H29zM1 18h2v1H1zM5 18h2v1H5zM8 18h2v1H8zM12 18h1v1H12zM15 18h2v1H15zM18 18h1v1H18zM20 18h2v1H20zM26 18h3v1H26zM30 18h2v1H30zM2 19h1v1H2zM5 19h1v1H5zM9 19h4v1H9zM14 19h2v1H14zM17 19h2v1H17zM20 19h3v1H20zM24 19h1v1H24zM26,19 h7v1H26zM0 20h3v1H0zM4 20h1v1H4zM6 20h1v1H6zM8 20h1v1H8zM10 20h2v1H10zM13 20h2v1H13zM16 20h1v1H16zM21 20h1v1H21zM23 20h3v1H23zM28 20h2v1H28zM31,20 h2v1H31zM0 21h1v1H0zM2 21h2v1H2zM7 21h1v1H7zM9 21h1v1H9zM13 21h1v1H13zM15 21h1v1H15zM20 21h4v1H20zM27 21h1v1H27zM29 21h1v1H29zM32,21 h1v1H32zM0 22h1v1H0zM5 22h3v1H5zM9 22h1v1H9zM11 22h1v1H11zM14 22h2v1H14zM17 22h1v1H17zM19 22h1v1H19zM24 22h1v1H24zM28 22h2v1H28zM31 22h1v1H31zM0 23h1v1H0zM2 23h1v1H2zM4 23h2v1H4zM7 23h1v1H7zM11 23h1v1H11zM15 23h2v1H15zM18 23h4v1H18zM29 23h3v1H29zM0 24h1v1H0zM3 24h1v1H3zM6 24h3v1H6zM10 24h1v1H10zM12 24h1v1H12zM19 24h1v1H19zM22 24h8v1H22zM31 24h1v1H31zM8 25h2v1H8zM12 25h3v1H12zM17 25h1v1H17zM19 25h2v1H19zM23 25h2v1H23zM28 25h1v1H28zM30 25h1v1H30zM32,25 h1v1H32zM0 26h7v1H0zM8 26h1v1H8zM12 26h3v1H12zM17 26h2v1H17zM22 26h3v1H22zM26 26h1v1H26zM28 26h1v1H28zM30 26h1v1H30zM0 27h1v1H0zM6 27h1v1H6zM8 27h1v1H8zM10 27h3v1H10zM15 27h2v1H15zM18 27h1v1H18zM20 27h1v1H20zM23 27h2v1H23zM28 27h4v1H28zM0 28h1v1H0zM2 28h3v1H2zM6 28h1v1H6zM8 28h1v1H8zM10 28h5v1H10zM20 28h3v1H20zM24 28h6v1H24zM31,28 h2v1H31zM0 29h1v1H0zM2 29h3v1H2zM6 29h1v1H6zM8 29h1v1H8zM10 29h1v1H10zM12 29h1v1H12zM14 29h1v1H14zM16 29h2v1H16zM23 29h3v1H23zM28 29h1v1H28zM32,29 h1v1H32zM0 30h1v1H0zM2 30h3v1H2zM6 30h1v1H6zM8 30h2v1H8zM11 30h3v1H11zM15 30h3v1H15zM20 30h2v1H20zM24 30h1v1H24zM26 30h2v1H26zM0 31h1v1H0zM6 31h1v1H6zM8 31h3v1H8zM13 31h4v1H13zM21 31h2v1H21zM25 31h1v1H25zM28 31h3v1H28zM0 32h7v1H0zM9 32h1v1H9zM12 32h1v1H12zM14 32h1v1H14zM16 32h3v1H16zM20 32h1v1H20zM22 32h3v1H22zM27 32h1v1H27zM30 32h2v1H30z" shape-rendering="crispEdges"/></svg>